<svg xmlns="http://www.w3.org/2000/svg" viewBox="0 0 512 512"><path fill="#0077c8" d="M310.52 151.97q7.63.07 15.22.09c14.57.03 22.08 10.01 25.71 22.74 2.39 8.41-2.5 19.48-10.13 24.22-7.1 4.41-21.04 6-30.11 7.75a.86.85-2.4 0 0-.69.74l-.88 7.84q-.08.65.57.65c12.12-.02 21.06.02 27.97 11.03 3.11 4.94 5.66 10.52 5.73 16.3.12 9.73-6.23 18.67-15.51 21.74q-1.63.54-10.87 2.12-10.48 1.8-20.96 3.46a.96.94-87 0 0-.76.7l-2.1 8.1q-.14.54.42.54c4.65.03 9.97-.31 14.08.45 22.67 4.2 27.02 35.87 7.8 47.1-6.87 4.01-19.13 5.3-27.29 6.84a.63.62-8.2 0 0-.51.67l1.02 13.68q.06.71.75.53c8.01-2.03 19.27-5.94 26.67-5.01 13.42 1.68 20.02 13.44 19.4 26.13-.49 10.05-6.1 15.16-12.88 21.67q-.31.31-.05.65l8.07 10.65a.48.48 0 0 0 .6.14c15.47-7.69 33.11-1.82 41.35 13.02 1.72 3.1 4.66 4.44 7.41 6.38 24.09 16.98 25.93 51.13 4.28 70.79-5.13 4.66-13.03 9.45-19.57 13.77a.42.41 60.2 0 1-.6-.17c-5.85-12.06-11.04-20.46-25.48-21.65-8.31-.68-16.59-1.8-24.87-2.69q-13.76-1.48-18.84-3.09-15.44-4.86-25.3-18.17c-6.15-8.31-11.19-13.19-21.98-13.85-14.71-.9-19.06-9.07-26.77-20.25-31.25-45.35-37.91-102.69-18.21-154.1q8.85-23.08 17.69-46.18 4.89-12.76 6.56-18.89c7.56-27.81 5.03-53.16-4.63-80.02q-10.2-28.35-20.5-56.67c-4.32-11.88-2.27-23.89 7.24-32.22 5.52-4.85 15.48-8.89 22.99-12.68q12.45-6.29 25.47 1.04.44.25.85-.05c7.95-5.75 17.97-14.98 26.1-18.08 30.03-11.42 50.82 36.15 18.22 50.15q-9.28 3.98-19.43 8.09-.66.26-.35.9l8.22 17.11q.25.53.8.33c13.09-4.78 23.6-10.17 34.76-1.73q7.91 5.99 8.67 15.99c.44 5.86.46 12.4-1.91 17.61-5.13 11.31-15.41 12.45-26.61 15.22a.5.49 78.1 0 0-.36.57l2.98 17.52q.08.47.55.48zM297.96 44.84c7.44-3.24 7.32-11.29 2.81-16.92-4.57-5.7-9.58-4.23-14.96-.24q-8.2 6.08-16.43 12.29a.44.43 57.9 0 0-.12.55l6.36 12.83q.21.43.66.26 10.99-4.12 21.68-8.77zm-38.55 11.94c-4.8-9.67-8.09-21.42-22.17-14.4q-6.27 3.13-12.54 6.27c-13.56 6.79-7.85 16.61-3.81 27.4q.18.48.64.25l37.67-18.89q.42-.21.21-.63zm-26.21 53.15a.44.44 0 0 0 .61.24l41.34-20.72a.44.44 0 0 0 .2-.59l-8.32-16.87a.44.44 0 0 0-.6-.2l-39.52 19.7a.44.44 0 0 0-.22.55l6.51 17.89zm83.06 4.56c4.62-1.37 3.77-7.25 3.73-10.7-.06-6.61-3.41-8.96-9.61-6.8q-6.03 2.1-12.05 4.11a.52.51-17.9 0 0-.33.64l4.93 15.7q.17.53.71.4 6.49-1.53 12.62-3.35zm-72.92 24.86a.41.41 0 0 0 .53.27l44.16-14.75a.41.41 0 0 0 .26-.52l-6.32-19.79a.41.41 0 0 0-.58-.25l-42.12 21a.41.41 0 0 0-.2.49l4.27 13.55zm4.52 31.29a.36.36 0 0 0 .43.32l46.44-9.25a.36.36 0 0 0 .28-.41l-2.95-20.41a.36.36 0 0 0-.47-.29l-44.74 14.91a.36.36 0 0 0-.25.37l1.26 14.76zm63.89-2.05l.17 21.29q0 .45.44.36 8.16-1.59 16.27-3.38c9.67-2.13 7.97-8.2 4.23-15-3.06-5.58-12.93-4.01-20.65-3.75q-.47.01-.46.48zM294.84 200a.53.53 0 0 0 .53-.51l.78-21.08a.53.53 0 0 0-.63-.54l-47.63 9.51a.53.53 0 0 0-.42.45l-1.55 11.57a.53.53 0 0 0 .53.6h48.39zm-57.49 29.4a.39.39 0 0 0 .32.51l51.4 5.78a.39.39 0 0 0 .42-.31l3.9-18.91a.39.39 0 0 0-.38-.47h-50.73a.39.39 0 0 0-.37.26l-4.56 13.14zm69.29 3.02l-5.26 20.66q-.12.47.36.4 15.39-2.2 20.59-3.36c10.77-2.42 3.21-17.94-2.9-18.06q-6.24-.13-12.29-.04a.53.53 0 0 0-.5.4zm-21.78 19.27a.32.32 0 0 0-.27-.4l-53.2-5.93a.32.32 0 0 0-.34.2l-7.26 18.83a.32.32 0 0 0 .26.44l54.99 6.1a.32.32 0 0 0 .34-.23l5.48-19.01zm-9.38 34.95l-57.4-6.37a.43.42-76.1 0 0-.45.28q-4.03 11.24-6.57 22.92a.44.44 0 0 0 .43.53h61.25q.51 0 .59-.51l2.35-16.58a.23.23 0 0 0-.2-.27zm36.44 20.85c1.73-14.23-12.22-11.76-21.02-11.42q-.7.03-.77.74l-1.91 20.65q-.07.76.68.61 5.63-1.08 11.24-2.25c6.17-1.29 10.98-1.76 11.78-8.33zm-103.56 17.13q-.68 9.11.02 17.9.05.61.65.55l62.43-6.24q.71-.07.7-.78l-.08-15.64q-.01-.41-.42-.41h-62.42a.69.69 0 0 0-.68.57c-.22 1.22-.13 3.14-.2 4.05zm7.14 56.12a.6.6 0 0 0 .75.43l58.51-17.54a.6.6 0 0 0 .42-.67l-1.51-9.7a.6.6 0 0 0-.66-.5l-62.3 6.22a.6.6 0 0 0-.52.74l5.31 21.02zm79.36-3.23q7.55 1.63 14.44 5.13.45.23.81-.13c2.88-2.88 8.66-7.42 9.63-11.25 1.76-7.02-1.39-12.52-9.28-10.6q-9.03 2.19-18.11 4.51-.53.14-.41.67l2.55 11.31a.48.47 89 0 0 .37.36zm-15.87 3.14q.19-.62-.34-.89a1.15.17 28.1 0 0-.92-.33l-55.21 16.56q-.6.18-.33.75 5.34 11.21 12.26 21.52.43.65 1.02.15 22.1-18.57 42.99-37.04.42-.37.53-.72zm31.57 41.42q3.69-3.72 7.42-7.37a1.22 1.21-36.4 0 0 .22-1.44q-9.03-16.55-27.65-20.29-.59-.12-1.05.27l-43.87 37.62a.46.45 29.6 0 0 .22.79c3.57.63 7.94.7 10.67 1.32q13.46 3.05 22.34 13.91c6.63 8.08 11.11 14.58 21.58 17.84q2.72.84 17.23 2.53c10.82 1.26 21.95 1.88 32.59 4.29q.82.18.27-.45-6.56-7.47-15.77-10.89c-7.04-2.61-15.06-1.91-21.26-5.79-11.48-7.16-12.38-22.82-2.94-32.34zm14.04 19.52c4.01.92 8.55 1.3 12.16 2.44q28.01 8.86 37.07 37.11.33 1.04 1.08.24 11.98-12.95 7.95-28.91c-2.92-11.54-10.77-16.25-20.73-22.76a1.81 1.76 5.1 0 1-.63-.73c-1.64-3.47-3.27-7.13-6.25-9.45-13.78-10.77-24.86 5.51-33.27 13.86-3.56 3.53-2.12 7.11 2.62 8.2z"/></svg>