<svg xmlns="http://www.w3.org/2000/svg" viewBox="0 0 512 512"><path d="M193.241 346.834l-.378-.314-3.183-2.909-1.561-1.527-1.527-1.561-2.909-3.183-2.715-3.265-2.52-3.346-2.327-3.427-2.133-3.508-1.939-3.589-1.745-3.67-1.551-3.752-1.357-3.832-1.164-3.913-.969-3.995-.776-4.076-.582-4.157-.388-4.238-.194-4.319-.025-2.19.025-2.19.194-4.319.388-4.238.582-4.157.776-4.076.969-3.995 1.164-3.913 1.357-3.832 1.551-3.752 1.745-3.67 1.939-3.589.39-.643-8.531-48.463-2.133 1.948-2.256 2.207-2.207 2.257-4.203 4.6-3.923 4.717-3.642 4.834-3.363 4.95-3.082 5.067-2.802 5.184-2.522 5.301-2.242 5.418-1.961 5.534-1.681 5.652-1.401 5.768-1.121 5.884-.84 6.002-.56 6.118-.28 6.235-.035 3.161.035 3.162.28 6.235.56 6.118.84 6.002 1.121 5.884 1.401 5.768 1.681 5.652 1.961 5.534 2.242 5.418 2.522 5.301 2.802 5.184 3.082 5.067 3.363 4.95 3.642 4.834 3.923 4.717 4.203 4.6 2.207 2.257 2.256 2.207 4.6 4.203 4.717 3.923 4.834 3.643 4.95 3.362 5.067 3.082 5.184 2.802 5.301 2.522 3.519 1.456zm120.224 39.247l4.95-3.362 4.833-3.643 4.717-3.923 4.6-4.203 2.256-2.207 2.207-2.257 4.203-4.6 3.923-4.717 3.643-4.834 3.362-4.95 3.082-5.067 2.802-5.184 2.522-5.301 2.241-5.418 1.962-5.534 1.681-5.652 1.401-5.768 1.12-5.884.841-6.002.56-6.118.28-6.235.035-3.162-.035-3.161-.28-6.235-.56-6.118-.841-6.002-1.12-5.884-1.401-5.768-1.681-5.652-1.962-5.534-2.241-5.418-2.522-5.301-2.802-5.184-3.082-5.067-3.362-4.95-3.643-4.834-3.923-4.717-4.203-4.6-2.207-2.257-2.256-2.207-4.6-4.203-4.717-3.923-4.833-3.643-4.95-3.362-5.067-3.082-5.184-2.802-5.301-2.522-5.418-2.241-5.534-1.961-5.652-1.681-5.768-1.401-2.168-.413 7.303 41.487 1.937.801 3.67 1.745 3.589 1.939 3.508 2.133 3.427 2.327 3.346 2.521 3.265 2.715 3.183 2.909 1.561 1.527 1.527 1.561 2.908 3.183 2.715 3.265 2.521 3.346 2.327 3.427 2.133 3.508 1.939 3.589 1.745 3.67 1.551 3.752 1.357 3.832 1.164 3.913.969 3.995.776 4.076.581 4.157.388 4.238.194 4.319.025 2.19-.025 2.19-.194 4.319-.388 4.238-.581 4.157-.776 4.076-.969 3.995-1.164 3.913-1.357 3.832-1.551 3.752-1.745 3.67-1.939 3.589-2.133 3.508-2.327 3.427-2.521 3.346-2.715 3.265-2.908 3.183-1.527 1.561-1.561 1.527-1.073.981 7.365 41.839z"/><path d="M369.363 508.143c-8.813-12.82-12.535-14.042-35.777-11.744-9.726.962-19.012 1.525-20.635 1.252-8.726-1.47-17.195-6.798-26.614-16.743-5.477-5.784-12.408-8.997-16.891-7.831-3.904 1.015-10.087-.081-13.85-2.455-4.375-2.761-21.812-23.57-29.247-34.903-8.173-12.457-16.43-28.342-22.124-42.563-6.34-15.832-13.016-40.892-15.299-57.423-2.372-17.179-2.63-25.826-2.056-68.874.648-48.558.314-52.677-6.351-78.277-6.453-24.786-7.187-26.399-33.147-72.832-18.185-32.526-20.069-36.226-21.647-42.502-3.567-14.188-1.263-21.969 10.481-35.408 7.129-8.158 8.8-9.57 12.448-10.518 2.317-.602 6.021-.659 8.231-.127l4.018.967 6.621-11.832c5.454-9.746 7.312-12.243 10.539-14.164 8.254-4.913 17.015-1.41 24.727 9.886 6.051 8.863 8.131 16.468 7.044 25.753-.935 7.984-3.237 11.884-11.85 20.077-3.823 3.636-7.138 7.02-7.368 7.52-.637 1.385 10.592 17.514 11.947 17.16.634-.166 2.69-1.712 4.569-3.437 8.998-8.262 14.889-9.125 22.464-3.29 4.909 3.782 8.508 10.01 10.738 18.584 2.336 8.984 2.32 14.793-.058 21.203-1.939 5.226-2.823 6.309-8.156 9.986-6.773 4.671-6.651 3.646-1.865 15.672l2.845 7.148 8.797-1.66c12.378-2.336 17.224-.135 25.147 11.425 9.096 13.271 8.513 30.881-1.259 37.987-1.956 1.422-6.405 4.185-9.888 6.139s-6.468 3.898-6.635 4.32.04 2.832.462 5.356l.765 4.59 4.322-1.124c9.473-2.464 16.286.934 23.761 11.85 6.791 9.917 8.421 22.541 4.05 31.356-2.353 4.745-4.319 6.215-17.044 12.746l-10.157 5.213.243 5.052.243 5.052 6.285-.973c7.534-1.166 12.893.265 17.6 4.699 3.584 3.376 8.001 11.26 9.468 16.898 1.406 5.406 1.436 13.988.065 18.756-1.737 6.043-5.148 9.56-14.481 14.933-8.896 5.121-8.57 4.036-4.587 15.291l1.856 5.244 7.992-5.323c8.449-5.627 11.753-6.517 16.941-4.562 9.161 3.451 15.949 15.232 16.617 28.84.223 4.541-.309 7.578-2.149 12.264-1.345 3.425-2.353 6.582-2.241 7.015s2.265 3.019 4.784 5.745c4.566 4.944 4.585 4.952 6.614 2.96 8.184-8.034 21.728-6.019 30.751 4.574 2.234 2.623 6.662 6.334 9.839 8.247 10.001 6.021 16.983 14.831 22.197 28.006 4.917 12.424 5.745 28.418 2.093 40.432-1.218 4.007-8.189 16.565-12.249 22.066-.47.637-1.851-.659-3.94-3.698zm5.805-34.743c.5-5.608.272-8.253-1.199-13.882-3.057-11.704-9.305-19.819-19.264-25.018-3.742-1.954-6.388-4.159-8.413-7.013-5.94-8.37-13.859-9.654-18.679-3.027-3.834 5.27-9.059 20.336-8.199 23.642.874 3.361 2.366 3.967 9.426 3.828 15.593-.307 32.752 12.179 42.721 31.085.948 1.799 1.023 1.783 1.988-.409.551-1.253 1.28-5.395 1.62-9.206zm-26.459 1.736c-5.239-4.472-11.682-6.635-19.812-6.651-8-.015-12.055-1.804-16.047-7.075-7-9.245-7.936-17.079-3.496-29.242l3.052-8.36-2.935-3.639c-6.275-7.781-18.696-14.613-24.042-13.222-.749.195-6.594 11.457-12.989 25.026l-11.627 24.672 5.962-.24c10.682-.431 17.468 2.8 26.954 12.836 6.397 6.767 12.928 11.031 18.136 11.837 1.617.251 10.875-.325 20.573-1.279s17.857-1.548 18.132-1.319.851.325 1.281.213-.984-1.711-3.143-3.554zm-86.773-54.123c10.206-21.554 12.616-28.231 9.282-25.717l-36.639 28.31c-.698 1.478 14.593 22.461 15.675 21.508.255-.225 5.512-11.07 11.683-24.101zm37.685-34.783c1.817-5.535 1.915-6.873.813-11.109-1.463-5.624-3.836-8.276-6.71-7.496-2.166.588-14.572 8.834-15.011 9.977-.572 1.489 4.698 12.102 6.079 12.243.752.076 3.524.76 6.16 1.518s5.2 1.33 5.697 1.27 1.834-2.941 2.97-6.403zm-54.833 8.706l19.38-14.739c1.084-.835 1.01-1.679-.529-6.045-.984-2.791-2.046-5.399-2.361-5.795-.396-.499-40.719 15.643-46.322 18.543-.893.462 9.831 22.294 10.824 22.035.488-.127 9.041-6.427 19.007-13.999zm-10.242-34.48l21.453-8.956-2.333-8.97-2.332-8.967-24.353 6.329-24.353 6.328 3.156 12.137 3.156 12.138 2.076-.543c1.142-.299 11.73-4.572 23.529-9.496zm36.437-36.413c6.934-4.277 7.992-6.637 6.152-13.714-.926-3.562-1.821-5.184-3.744-6.789-2.285-1.906-3.14-1.949-8.913-.448l-6.386 1.661.616 4.065c.339 2.236 1.294 7.565 2.121 11.843 1.764 9.12 1.172 8.923 10.154 3.382zm-24.692-16.995c-.829-5.168-1.606-9.459-1.728-9.535-.462-.29-45.574 4.488-45.693 4.839-.267.791.501 18.52.968 22.366l.495 4.07 23.732-6.172 23.732-6.172zm-3.609-37.308c-.324-5.883-.756-10.836-.961-11.006-.827-.69-41.918 3.856-42.181 4.667-.56 1.723-.391 20.691.188 21.174.607.506 35.895-2.595 40.809-3.587l2.733-.551zm20.487-15.858c4.911-2.623 8.428-5.143 9.004-6.452 1.652-3.755-.805-9.96-5.716-14.434-1.884-1.716-2.914-1.778-7.926-.474l-5.761 1.498.833 10.77.927 12.154c.052.761.204 1.352.337 1.313s3.869-2.007 8.301-4.375zm-23.131-23.312l-1.239-10.946-19.704 5.151-19.704 5.151.165 7.487c.091 4.118.365 7.653.609 7.857.396.331 35.458-2.746 39.486-3.465 1.456-.26 1.496-1.427.386-11.236zm-6.918-39.893c-2.232-8.582-3.266-11.547-3.964-11.368-.923.237-33.068 18.793-33.24 19.189-.05.11.444 3.228 1.093 6.929l1.18 6.729 18.975-4.935 18.975-4.935zm26.865-11.393c2.34-3.988.62-9.869-4.29-14.674-2.753-2.693-2.916-2.709-9.75-.932l-6.95 1.808 3.287 11.822 3.335 11.914c.388.755 13.358-8.215 14.368-9.938zm-51.181-7.631c8.603-5.023 15.746-9.405 15.874-9.738.236-.616-6.212-18.693-7.411-20.776-.442-.767-5.659 2.984-15.915 11.439-13.825 11.398-15.168 12.768-14.304 14.585.525 1.103 1.669 4.735 2.543 8.072 1.126 4.297 1.878 5.991 2.58 5.808.545-.142 8.03-4.368 16.633-9.39zm-13.595-34.903c7.627-6.255 13.878-11.975 13.891-12.711.025-1.395-7.67-16.969-9.444-19.116-.786-.951-3.982 2.247-14.078 14.089-7.184 8.426-12.988 15.6-12.899 15.943.744 2.861 7.333 14.365 7.924 13.834.407-.366 6.981-5.783 14.608-12.039zm28.828-25.5c5.851-4.006 6.343-5.507 4.334-13.231-1.816-6.984-3.958-9.871-6.779-9.138-1.804.469-9.949 6.916-10.602 8.391-.341.771 5.661 13.879 7.493 16.362.693.94.704.936 5.553-2.384zm-46.299-6.462c6.792-7.967 12.188-15.101 11.992-15.855s-2.721-4.921-5.611-9.261l-5.255-7.891-12.371 14.511c-7.594 8.907-12.217 15.106-11.971 16.05.22.846 1.843 4.098 3.607 7.226l4.453 7.899c.685 1.216 1.598 2.12 2.027 2.008s6.338-6.721 13.13-14.688zm-8.025-45.841c.095-.22-1.98-3.453-4.611-7.185-7.836-11.116-11.04-11.196-20.354-.507-9.45 10.845-10.193 16.487-3.662 27.815l3.668 6.432c.841 1.519 2.483-.04 12.875-12.207l12.084-14.347zm18.827-14.097c4.172-4 8.071-8.541 8.666-10.09 1.911-4.977-1.787-14.23-6.846-17.129-4.292-2.459-6.457-.652-12.67 10.576-3.214 5.807-5.787 10.777-5.718 11.044.183.705 8.52 12.993 8.771 12.928.116-.03 3.625-3.328 7.796-7.328z" fill="#0077c8"/></svg>