<svg xmlns="http://www.w3.org/2000/svg" viewBox="0 0 2500 2500"><rect width="2500" height="2500" x="0" y="0" fill="#fff"/><path d="M1533.018 1145.371h38.047v190.234h95.117v38.047h-133.164zm266.328 71.338l-71.338 156.943h-42.803l114.14-247.304 114.14 247.304h-42.803zm199.746 23.779q11.89 0 20.212-8.323 8.323-8.323 8.323-20.212 0-11.89-8.323-20.212-8.323-8.323-20.212-8.323h-28.535v152.187h66.582q11.89 0 20.212-8.323 8.323-8.323 8.323-20.212 0-11.89-8.323-20.212-8.323-8.323-20.212-8.323h-38.047zm-66.582-95.117h66.582q27.643 0 47.113 19.469 19.469 19.469 19.469 47.113 0 17.389-7.728 31.656 14.565 4.607 26.306 16.348 19.469 19.469 19.469 47.113 0 27.643-19.469 47.113-19.469 19.469-47.113 19.469h-104.629z" fill="#0077c8"/><path d="M1040.975 1372.889l4.31-.162 4.236-.325 4.161-.488 4.087-.65 4.013-.813 3.938-.975 3.864-1.138 1.905-.63 2.478-.885 4.782-1.951 4.546-2.192 4.313-2.434 4.078-2.676 3.843-2.917 3.609-3.158 3.374-3.4 1.599-1.79 1.528-1.846 2.808-3.841 2.475-4.041 2.144-4.24 1.812-4.44 1.479-4.64 1.148-4.84.815-5.039.283-2.594.13-1.626.148-3.196.019-1.569-.025-1.827-.2-3.581-.399-3.484-.599-3.385-.799-3.289-.999-3.19-1.198-3.093-1.398-2.996-.774-1.461-.992-1.716-2.137-3.365-2.341-3.274-2.545-3.184-2.749-3.093-2.954-3.002-3.159-2.912-3.363-2.822-1.758-1.377-1.799-1.361-3.692-2.696-3.818-2.661-3.943-2.627-4.068-2.591-4.194-2.557-4.319-2.522-4.445-2.487-2.269-1.23-8.323-4.458-1.338-.743-2.855-1.477-5.452-2.898-5.109-2.824-4.765-2.75-2.254-1.346-2.142-1.342-3.874-2.712-3.325-2.75-2.777-2.787-1.184-1.407-1.045-1.43-1.672-2.973-1.115-3.121-.557-3.269-.07-1.69.037-1.152.111-1.078.188-1.558.613-2.988.929-2.819 1.244-2.65 1.561-2.48 1.876-2.311 2.192-2.141 2.508-1.972 1.372-.922 1.419-.872 2.88-1.577 2.935-1.351 2.991-1.126 3.047-.901 3.102-.676 3.159-.451 3.213-.225 1.628-.029 1.273.019 2.601.149 1.329.13 1.625.173 3.191.492 3.111.688 3.033.882 2.954 1.078 2.874 1.273 2.796 1.467 2.717 1.663 1.329.905 1.247.947 2.397 2.006 2.266 2.155 2.137 2.304 1.019 1.208 22.293-30.022-1.057-1.142-2.21-2.23-2.341-2.155-2.471-2.081-1.284-1.013-2.169-1.574-4.537-2.898-4.802-2.563-5.067-2.23-5.332-1.895-5.597-1.56-5.861-1.226-6.126-.892-3.162-.32-2.359-.196-4.608-.223-2.248-.028-2.017.021-3.985.167-3.92.334-3.855.502-3.79.669-3.725.836-3.659 1.003-3.595 1.17-1.773.648-2.259.882-4.361 1.932-4.152 2.155-3.943 2.378-3.734 2.601-3.525 2.824-3.316 3.046-3.107 3.269-1.475 1.719-1.41 1.768-2.592 3.664-2.285 3.836-1.978 4.008-1.672 4.18-1.365 4.352-1.058 4.524-.753 4.696-.261 2.412-.13 1.477-.149 2.898-.019 1.421.056 2.566.446 4.923.892 4.645 1.337 4.365.836 2.079.553 1.31 1.189 2.561 1.301 2.485 1.412 2.408 1.523 2.332 1.635 2.255 1.747 2.178 1.857 2.101.971 1.022 2.001 1.997 4.189 3.827 4.44 3.604 4.691 3.381 2.439 1.607 2.476 1.564 4.988 3.037 5.035 2.917 5.081 2.796 2.558 1.352 2.378 1.486 4.458 2.406 8.917 4.979 4.458 2.573 2.461 1.459 4.746 2.982 4.515 3.065 4.282 3.149 2.054 1.606 1.967 1.619 3.586 3.251 3.121 3.27 2.656 3.288 1.154 1.651 1.028 1.661 1.644 3.372 1.096 3.437.548 3.502.068 1.775-.037 1.078-.112 1.152-.194 1.664-.665 3.17-1.031 2.958-1.398 2.747-1.764 2.535-2.132 2.324-2.499 2.114-2.865 1.902-1.571.871-1.626.819-3.307 1.479-3.381 1.268-3.456 1.056-3.529.845-3.604.634-3.678.423-3.753.211-1.904.026-1.802-.018-3.716-.149-1.913-.13-2.14-.233-4.189-.631-4.068-.854-3.948-1.078-3.827-1.3-3.707-1.524-3.586-1.746-3.464-1.969-1.687-1.068-1.935-1.331-3.66-2.842-3.381-3.084-3.102-3.325-1.446-1.754-23.185 31.062 1.516 1.654 3.214 3.195 3.456 3.047 3.697 2.898 1.939 1.394 1.272.889 2.598 1.709 2.671 1.617 2.742 1.523 2.815 1.431 2.886 1.337 2.958 1.245 3.03 1.151 3.103 1.059 3.174.966 3.246.873 3.318.78 3.39.688 3.462.594 3.534.502 3.607.409 1.83.169 2.954.261 5.796.297 2.842.037zm343.583-17.932l4.995-3.392 4.877-3.676 4.76-3.958 4.641-4.24 2.276-2.226 2.227-2.277 4.24-4.641 3.958-4.759 3.676-4.878 3.392-4.995 3.11-5.112 2.827-5.231 2.544-5.349 2.262-5.466 1.979-5.584 1.696-5.703 1.414-5.82 1.13-5.937.849-6.056.566-6.174.282-6.291.036-3.19-.036-3.189-.282-6.292-.566-6.174-.849-6.056-1.13-5.937-1.414-5.82-1.696-5.702-1.979-5.584-2.262-5.466-2.544-5.349-2.827-5.231-3.11-5.112-3.392-4.995-3.676-4.878-3.958-4.76-4.24-4.641-2.227-2.277-2.276-2.226-4.641-4.241-4.76-3.958-4.877-3.676-4.995-3.392-5.113-3.11-5.231-2.827-5.349-2.544-5.466-2.262-5.584-1.979-5.702-1.697-5.82-1.413-2.188-.417 7.369 41.861 1.954.808 3.704 1.761 3.621 1.957 3.54 2.152 3.457 2.348 3.376 2.543 3.294 2.739 3.212 2.935 1.576 1.541 1.541 1.575 2.935 3.212 2.739 3.294 2.543 3.376 2.348 3.457 2.152 3.54 1.957 3.621 1.761 3.703 1.565 3.786 1.369 3.867 1.174 3.948.978 4.031.783 4.112.587 4.195.391 4.276.195 4.358.025 2.209-.025 2.21-.195 4.358-.391 4.276-.587 4.195-.783 4.112-.978 4.031-1.174 3.948-1.369 3.867-1.565 3.785-1.761 3.703-1.957 3.621-2.152 3.54-2.348 3.457-2.543 3.376-2.739 3.294-2.935 3.212-1.541 1.575-1.576 1.541-1.083.989 7.431 42.216zm-972.498-181.05h47.558l2.448.054 4.758.434 4.575.869 4.391 1.303 4.208 1.737 4.025 2.171 3.84 2.605 3.658 3.04 1.76 1.683 1.683 1.76 3.039 3.658 2.606 3.841 2.172 4.024 1.737 4.207 1.303 4.391.869 4.575.434 4.758.054 2.447-.054 2.448-.434 4.758-.869 4.575-1.303 4.391-1.737 4.208-2.172 4.024-2.606 3.841-3.039 3.657-1.683 1.76-1.76 1.683-3.658 3.039-3.84 2.606-4.025 2.171-4.208 1.737-4.391 1.303-4.575.868-4.758.435-2.448.054h-19.024v38.047h19.024l2.21-.024 4.358-.196 4.277-.391 4.194-.587 4.113-.783 4.031-.978 3.949-1.174 3.867-1.37 3.785-1.565 3.703-1.761 3.622-1.957 3.54-2.152 3.458-2.348 3.376-2.543 3.294-2.739 3.212-2.935 1.576-1.54 1.541-1.576 2.934-3.212 2.74-3.294 2.543-3.376 2.348-3.458 2.152-3.54 1.957-3.621 1.76-3.703 1.566-3.785 1.369-3.867 1.174-3.949.978-4.03.783-4.113.587-4.195.391-4.276.196-4.358.024-2.21-.024-2.209-.196-4.359-.391-4.276-.587-4.195-.783-4.113-.978-4.031-1.174-3.949-1.369-3.867-1.566-3.785-1.76-3.704-1.957-3.621-2.152-3.54-2.348-3.457-2.543-3.376-2.74-3.294-2.934-3.212-1.541-1.576-1.576-1.541-3.212-2.935-3.294-2.739-3.376-2.543-3.458-2.347-3.54-2.152-3.622-1.957-3.703-1.761-3.785-1.565-3.867-1.37-3.949-1.174-4.031-.978-4.113-.783-4.194-.587-4.277-.391-4.358-.196-2.21-.024h-85.605v228.281h38.046zm190.234 95.117h95.117v95.117h38.047V1135.86h-38.047v95.117h-95.117v-95.117h-38.047v228.281h38.047zm266.327-14.714L871 1250l73.716-114.14h-42.803l-52.314 80.998-52.314-80.998h-42.803L828.197 1250l2.378 5.796v108.344h38.046zm307.347-118.45h-38.047v228.281h38.047zm87.281 179.496l-.381-.317-3.212-2.935-1.575-1.541-1.541-1.575-2.935-3.212-2.739-3.294-2.543-3.376-2.348-3.457-2.152-3.54-1.956-3.621-1.761-3.703-1.565-3.785-1.37-3.867-1.174-3.948-.978-4.031-.783-4.112-.587-4.195-.392-4.276-.195-4.358-.024-2.21.024-2.209.195-4.358.392-4.276.587-4.195.783-4.112.978-4.031 1.174-3.948 1.37-3.867 1.565-3.786 1.761-3.703 1.956-3.621.394-.649-8.608-48.899-2.152 1.966-2.276 2.226-2.227 2.277-4.241 4.641-3.958 4.76-3.675 4.878-3.393 4.995-3.11 5.112-2.827 5.231-2.544 5.349-2.262 5.466-1.979 5.584-1.697 5.702-1.414 5.82-1.131 5.938-.848 6.056-.566 6.174-.283 6.292-.035 3.189.035 3.19.283 6.291.566 6.174.848 6.056 1.131 5.938 1.414 5.82 1.697 5.703 1.979 5.584 2.262 5.466 2.544 5.349 2.827 5.231 3.11 5.112 3.393 4.995 3.675 4.878 3.958 4.759 4.241 4.641 2.227 2.277 2.276 2.226 4.642 4.24 4.759 3.958 4.877 3.676 4.995 3.392 5.113 3.11 5.231 2.827 5.349 2.545 3.55 1.469z"/><path d="M1440.96 1478.116c-8.892-12.936-12.648-14.169-36.099-11.85-9.814.97-19.183 1.539-20.821 1.263-8.804-1.483-17.35-6.859-26.853-16.894-5.527-5.836-12.519-9.078-17.043-7.901-3.94 1.025-10.178-.082-13.975-2.477-4.414-2.786-22.009-23.782-29.511-35.217-8.246-12.569-16.578-28.598-22.324-42.946-6.397-15.975-13.134-41.261-15.437-57.941-2.393-17.333-2.654-26.059-2.074-69.494.654-48.995.317-53.152-6.408-78.982-6.511-25.009-7.252-26.637-33.446-73.488-18.349-32.819-20.25-36.552-21.842-42.885-3.599-14.315-1.275-22.167 10.575-35.727 7.194-8.232 8.88-9.657 12.56-10.613 2.338-.607 6.076-.665 8.306-.128l4.054.976 6.681-11.939c5.503-9.834 7.378-12.353 10.634-14.291 8.329-4.957 17.169-1.423 24.95 9.975 6.105 8.943 8.204 16.617 7.107 25.985-.943 8.056-3.266 11.991-11.957 20.258-3.857 3.669-7.203 7.083-7.435 7.588-.643 1.397 10.688 17.671 12.055 17.315.64-.167 2.714-1.727 4.61-3.468 9.079-8.336 15.023-9.207 22.666-3.32 4.954 3.816 8.585 10.1 10.835 18.751 2.357 9.064 2.341 14.926-.059 21.394-1.956 5.273-2.849 6.366-8.229 10.076-6.834 4.713-6.711 3.679-1.882 15.813l2.871 7.212 8.876-1.675c12.49-2.357 17.379-.136 25.374 11.528 9.178 13.39 8.59 31.159-1.27 38.329-1.974 1.435-6.463 4.223-9.977 6.195s-6.526 3.933-6.695 4.359.04 2.857.466 5.405l.772 4.631 4.361-1.134c9.558-2.486 16.432.942 23.975 11.957 6.852 10.007 8.497 22.744 4.086 31.639-2.374 4.788-4.358 6.271-17.198 12.861l-10.249 5.26.245 5.097.245 5.097 6.341-.981c7.602-1.177 13.01.267 17.759 4.741 3.617 3.407 8.073 11.361 9.553 17.05 1.419 5.455 1.448 14.114.066 18.925-1.753 6.097-5.195 9.646-14.611 15.068-8.976 5.168-8.647 4.072-4.628 15.428l1.873 5.291 8.064-5.371c8.525-5.678 11.859-6.575 17.093-4.604 9.244 3.482 16.093 15.369 16.767 29.1.225 4.582-.312 7.646-2.168 12.374-1.357 3.456-2.374 6.641-2.261 7.079s2.286 3.046 4.827 5.797c4.607 4.988 4.626 4.997 6.674 2.986 8.258-8.106 21.924-6.073 31.028 4.615 2.254 2.646 6.722 6.391 9.928 8.321 10.091 6.076 17.136 14.964 22.397 28.258 4.961 12.536 5.797 28.674 2.112 40.796-1.229 4.043-8.262 16.714-12.359 22.265-.474.643-1.868-.665-3.976-3.731zm5.857-35.056c.505-5.659.274-8.327-1.209-14.007-3.085-11.81-9.389-19.997-19.438-25.244-3.775-1.971-6.446-4.197-8.489-7.076-5.993-8.446-13.984-9.741-18.847-3.055-3.868 5.318-9.141 20.519-8.273 23.855.882 3.392 2.387 4.003 9.51 3.863 15.733-.31 33.047 12.288 43.106 31.365.957 1.815 1.033 1.799 2.006-.413.556-1.264 1.292-5.444 1.635-9.289zm-26.698 1.752c-5.287-4.513-11.787-6.695-19.99-6.711-8.072-.015-12.164-1.82-16.191-7.139-7.063-9.328-8.008-17.233-3.528-29.506l3.079-8.435-2.961-3.672c-6.331-7.851-18.865-14.744-24.259-13.342-.756.197-6.654 11.56-13.106 25.251l-11.731 24.894 6.015-.243c10.779-.435 17.626 2.826 27.197 12.951 6.454 6.828 13.045 11.13 18.3 11.944 1.632.253 10.973-.328 20.758-1.291s18.018-1.561 18.295-1.33.859.327 1.293.215-.993-1.727-3.171-3.586zm-87.554-54.61c10.298-21.749 12.73-28.485 9.365-25.949l-36.969 28.565c-.705 1.491 14.725 22.663 15.816 21.702.257-.227 5.562-11.17 11.788-24.319zm38.025-35.096c1.833-5.585 1.932-6.935.821-11.209-1.476-5.675-3.871-8.351-6.77-7.563-2.186.594-14.703 8.914-15.146 10.067-.577 1.503 4.741 12.211 6.134 12.353.759.077 3.556.767 6.216 1.532s5.246 1.342 5.748 1.281 1.851-2.968 2.997-6.46zm-55.327 8.784l19.555-14.872c1.094-.843 1.02-1.695-.533-6.1-.993-2.816-2.065-5.447-2.382-5.847-.399-.503-41.086 15.784-46.739 18.71-.901.466 9.919 22.495 10.922 22.234.492-.128 9.123-6.484 19.178-14.125zm-10.334-34.79l21.646-9.037-2.354-9.051-2.353-9.048-24.572 6.386-24.573 6.385 3.185 12.247 3.185 12.247 2.094-.548c1.152-.302 11.835-4.613 23.741-9.582zm36.766-36.741c6.996-4.315 8.064-6.697 6.207-13.838-.935-3.594-1.837-5.231-3.778-6.85-2.305-1.923-3.168-1.967-8.994-.452l-6.444 1.676.622 4.102c.342 2.256 1.305 7.634 2.14 11.95 1.78 9.202 1.182 9.003 10.246 3.412zm-24.914-17.148c-.836-5.215-1.621-9.544-1.744-9.621-.466-.293-45.985 4.528-46.104 4.882-.27.798.505 18.687.977 22.568l.499 4.107 23.946-6.227 23.946-6.227zm-3.641-37.644c-.327-5.936-.763-10.933-.969-11.105-.835-.696-42.295 3.891-42.561 4.709-.565 1.739-.395 20.877.19 21.365.612.511 36.218-2.619 41.177-3.619l2.758-.556zm20.671-16.001c4.956-2.647 8.503-5.19 9.085-6.511 1.667-3.789-.812-10.05-5.767-14.564-1.901-1.731-2.94-1.794-7.997-.478l-5.812 1.512.841 10.867.936 12.263c.053.768.206 1.364.34 1.325s3.903-2.025 8.375-4.414zm-23.339-23.522l-1.25-11.045-19.881 5.198-19.881 5.198.167 7.554c.091 4.155.369 7.722.615 7.928.4.334 35.778-2.77 39.842-3.496 1.469-.262 1.509-1.44.389-11.337zm-6.98-40.253c-2.252-8.66-3.295-11.651-4-11.47-.931.239-33.366 18.962-33.54 19.362-.05.111.448 3.257 1.103 6.991l1.191 6.789 19.146-4.979 19.146-4.979zm27.107-11.496c2.361-4.024.626-9.958-4.329-14.806-2.778-2.718-2.942-2.733-9.838-.94l-7.013 1.824 3.317 11.928 3.365 12.022c.392.762 13.478-8.289 14.498-10.028zm-51.642-7.7c8.68-5.068 15.888-9.49 16.017-9.826.238-.621-6.268-18.861-7.478-20.963-.446-.773-5.71 3.011-16.058 11.542-13.949 11.5-15.305 12.883-14.433 14.716.53 1.113 1.684 4.778 2.566 8.144 1.136 4.336 1.895 6.045 2.603 5.861.55-.143 8.102-4.407 16.783-9.475zm-13.717-35.218c7.696-6.311 14.003-12.083 14.016-12.826.025-1.408-7.739-17.122-9.529-19.288-.793-.959-4.018 2.267-14.205 14.216-7.249 8.502-13.106 15.74-13.016 16.086.751 2.887 7.399 14.494 7.995 13.958.411-.369 7.044-5.836 14.739-12.147zm29.088-25.73c5.904-4.042 6.4-5.557 4.373-13.35-1.833-7.047-3.994-9.96-6.84-9.22-1.82.474-10.039 6.978-10.697 8.467-.344.778 5.713 14.004 7.561 16.51.7.949.711.944 5.603-2.406zm-46.716-6.521c6.853-8.038 12.298-15.238 12.1-15.998s-2.746-4.965-5.662-9.344l-5.302-7.962-12.483 14.642c-7.662 8.988-12.327 15.242-12.079 16.195.222.854 1.86 4.135 3.639 7.291l4.493 7.97c.692 1.227 1.612 2.139 2.045 2.026s6.395-6.782 13.248-14.82zm-8.097-46.254c.096-.222-1.998-3.484-4.652-7.25-7.907-11.216-11.139-11.297-20.538-.511-9.535 10.942-10.285 16.636-3.695 28.065l3.701 6.49c.848 1.533 2.506-.04 12.991-12.317l12.193-14.477zm18.996-14.224c4.209-4.036 8.144-8.618 8.744-10.181 1.928-5.022-1.803-14.358-6.907-17.283-4.33-2.481-6.515-.658-12.785 10.671-3.243 5.86-5.839 10.874-5.769 11.143.185.711 8.597 13.11 8.85 13.044.118-.03 3.657-3.358 7.866-7.394z" fill="#0077c8"/><path d="M1528.198 1411.783q15.624 0 23.135 10.041 5.864 7.832 5.864 20.042 0 13.214-6.707 21.97-7.872 10.282-22.452 10.282-13.616 0-21.407-8.997-6.948-8.675-6.948-21.93 0-11.969 5.944-20.484 7.631-10.925 22.572-10.925zm.803 55.185q10.563 0 15.282-7.571 4.719-7.571 4.719-17.411 0-10.402-5.442-16.748-5.442-6.346-14.881-6.346-9.157 0-14.941 6.286-5.784 6.286-5.784 18.536 0 9.8 4.96 16.528 4.96 6.727 16.086 6.727zm41.048-8.073q.321 3.615 1.807 5.543 2.731 3.494 9.479 3.494 4.016 0 7.069-1.747 3.052-1.747 3.052-5.402 0-2.771-2.45-4.217-1.566-.884-6.185-2.048l-5.743-1.446q-5.502-1.366-8.113-3.052-4.659-2.932-4.659-8.113 0-6.105 4.398-9.88 4.398-3.775 11.828-3.775 9.72 0 14.017 5.703 2.691 3.615 2.611 7.792h-6.828q-.201-2.45-1.727-4.458-2.49-2.852-8.635-2.852-4.097 0-6.205 1.566-2.109 1.566-2.109 4.137 0 2.811 2.771 4.498 1.607 1.004 4.739 1.767l4.78 1.165q7.792 1.888 10.443 3.655 4.217 2.771 4.217 8.716 0 5.743-4.358 9.921-4.358 4.177-13.274 4.177-9.599 0-13.596-4.358-3.996-4.358-4.277-10.784zm38.276-41.53h7.31v12.009h6.868v5.904h-6.868v28.075q0 2.249 1.526 3.012.843.442 2.811.442.522 0 1.125-.02.602-.02 1.406-.1v5.703q-1.245.361-2.591.522-1.345.161-2.912.161-5.061 0-6.868-2.591-1.807-2.591-1.807-6.727v-28.476h-5.824v-5.904h5.824zm39.321 11.045q4.579 0 8.876 2.149 4.298 2.149 6.547 5.563 2.169 3.253 2.892 7.591.643 2.972.643 9.479h-31.529q.201 6.547 3.093 10.503 2.892 3.956 8.957 3.956 5.663 0 9.037-3.735 1.928-2.169 2.731-5.021h7.109q-.281 2.37-1.868 5.282-1.586 2.912-3.555 4.759-3.293 3.213-8.153 4.338-2.611.643-5.904.643-8.033 0-13.616-5.844-5.583-5.844-5.583-16.367 0-10.362 5.623-16.829 5.623-6.466 14.7-6.466zm11.527 19.038q-.442-4.699-2.048-7.511-2.972-5.221-9.921-5.221-4.98 0-8.354 3.595-3.374 3.595-3.575 9.137zm33.376 20.283q7.189 0 9.86-5.442 2.671-5.442 2.671-12.109 0-6.025-1.928-9.8-3.052-5.944-10.523-5.944-6.627 0-9.639 5.061-3.012 5.061-3.012 12.21 0 6.868 3.012 11.447 3.012 4.579 9.559 4.579zm.281-39.602q8.314 0 14.057 5.543 5.743 5.543 5.743 16.307 0 10.402-5.061 17.19-5.061 6.788-15.704 6.788-8.876 0-14.098-6.005-5.221-6.005-5.221-16.126 0-10.844 5.502-17.271 5.502-6.426 14.78-6.426zm46.55 39.401q5.061 0 8.414-4.237 3.354-4.237 3.354-12.672 0-5.141-1.486-8.836-2.811-7.109-10.282-7.109-7.511 0-10.282 7.511-1.486 4.016-1.486 10.202 0 4.98 1.486 8.475 2.811 6.667 10.282 6.667zm-18.716-37.955h7.029v5.703q2.169-2.932 4.739-4.539 3.655-2.41 8.595-2.41 7.31 0 12.411 5.603 5.101 5.603 5.101 16.005 0 14.057-7.35 20.082-4.659 3.816-10.844 3.816-4.86 0-8.153-2.129-1.928-1.205-4.298-4.137v21.97h-7.23zm51.852 31.368q0 3.133 2.289 4.94 2.289 1.807 5.422 1.807 3.816 0 7.39-1.767 6.025-2.932 6.025-9.599v-5.824q-1.325.843-3.414 1.406-2.089.562-4.097.803l-4.378.562q-3.936.522-5.904 1.647-3.334 1.888-3.334 6.025zm17.512-14.62q2.49-.321 3.334-2.089.482-.964.482-2.771 0-3.695-2.631-5.362-2.631-1.667-7.531-1.667-5.663 0-8.033 3.052-1.325 1.687-1.727 5.021h-6.748q.201-7.952 5.161-11.065 4.96-3.113 11.507-3.113 7.591 0 12.33 2.892 4.699 2.892 4.699 8.997v24.781q0 1.125.462 1.807.462.683 1.948.683.482 0 1.084-.06.602-.06 1.285-.181v5.342q-1.687.482-2.571.602-.884.12-2.41.12-3.735 0-5.422-2.651-.884-1.406-1.245-3.976-2.209 2.892-6.346 5.021-4.137 2.129-9.117 2.129-5.984 0-9.78-3.635-3.796-3.635-3.796-9.097 0-5.984 3.735-9.278 3.735-3.293 9.8-4.057zm24.139-28.958h7.31v12.009h6.868v5.904h-6.868v28.075q0 2.249 1.526 3.012.843.442 2.811.442.522 0 1.125-.02.602-.02 1.406-.1v5.703q-1.245.361-2.591.522-1.345.161-2.912.161-5.061 0-6.868-2.591-1.807-2.591-1.807-6.727v-28.476h-5.824v-5.904h5.824zm21.407 12.21h7.35v42.815h-7.35zm0-16.186h7.35v8.193h-7.35zm23.817 47.554q0 3.133 2.289 4.94 2.289 1.807 5.422 1.807 3.816 0 7.39-1.767 6.025-2.932 6.025-9.599v-5.824q-1.325.843-3.414 1.406-2.089.562-4.097.803l-4.378.562q-3.936.522-5.904 1.647-3.334 1.888-3.334 6.025zm17.512-14.62q2.49-.321 3.334-2.089.482-.964.482-2.771 0-3.695-2.631-5.362-2.631-1.667-7.531-1.667-5.663 0-8.033 3.052-1.325 1.687-1.727 5.021h-6.748q.201-7.952 5.161-11.065 4.96-3.113 11.507-3.113 7.591 0 12.33 2.892 4.699 2.892 4.699 8.997v24.781q0 1.125.462 1.807.462.683 1.948.683.482 0 1.084-.06.602-.06 1.285-.181v5.342q-1.687.482-2.571.602-.884.12-2.41.12-3.735 0-5.422-2.651-.884-1.406-1.245-3.976-2.209 2.892-6.346 5.021-4.137 2.129-9.117 2.129-5.984 0-9.78-3.635-3.796-3.635-3.796-9.097 0-5.984 3.735-9.278 3.735-3.293 9.8-4.057zM874.24 1412.587h40.927v7.23h-32.935v17.913h28.958v7.029h-28.958v26.83h-7.993zm48.518 16.186h7.35v42.815h-7.35zm0-16.186h7.35v8.193h-7.35zm22.572 45.506q.321 3.615 1.807 5.543 2.731 3.494 9.479 3.494 4.016 0 7.069-1.747 3.052-1.747 3.052-5.402 0-2.771-2.45-4.217-1.566-.884-6.185-2.048l-5.743-1.446q-5.502-1.366-8.113-3.052-4.659-2.932-4.659-8.113 0-6.105 4.398-9.88 4.398-3.775 11.828-3.775 9.72 0 14.017 5.703 2.691 3.615 2.611 7.792h-6.828q-.201-2.45-1.727-4.458-2.49-2.852-8.635-2.852-4.097 0-6.205 1.566-2.109 1.566-2.109 4.137 0 2.811 2.771 4.498 1.607 1.004 4.739 1.767l4.78 1.165q7.792 1.888 10.443 3.655 4.217 2.771 4.217 8.716 0 5.743-4.358 9.921-4.358 4.177-13.274 4.177-9.599 0-13.596-4.358-3.996-4.358-4.277-10.784zm36.83-29.32h7.35v42.815h-7.35zm0-16.186h7.35v8.193h-7.35zm35.344 54.342q7.189 0 9.86-5.442 2.671-5.442 2.671-12.109 0-6.025-1.928-9.8-3.052-5.944-10.523-5.944-6.627 0-9.639 5.061-3.012 5.061-3.012 12.21 0 6.868 3.012 11.447 3.012 4.579 9.559 4.579zm.281-39.602q8.314 0 14.057 5.543 5.743 5.543 5.743 16.307 0 10.402-5.061 17.19-5.061 6.788-15.704 6.788-8.876 0-14.098-6.005-5.221-6.005-5.221-16.126 0-10.844 5.502-17.271 5.502-6.426 14.78-6.426zm29.842-10.764h7.31v12.009h6.868v5.904h-6.868v28.075q0 2.249 1.526 3.012.843.442 2.811.442.522 0 1.125-.02.602-.02 1.406-.1v5.703q-1.245.361-2.591.522-1.345.161-2.912.161-5.061 0-6.868-2.591-1.807-2.591-1.807-6.727v-28.476h-5.824v-5.904h5.824zm39.321 11.045q4.579 0 8.876 2.149 4.298 2.149 6.547 5.563 2.169 3.253 2.892 7.591.643 2.972.643 9.479h-31.529q.201 6.547 3.093 10.503 2.892 3.956 8.957 3.956 5.663 0 9.037-3.735 1.928-2.169 2.731-5.021h7.109q-.281 2.37-1.868 5.282-1.586 2.912-3.555 4.759-3.293 3.213-8.153 4.338-2.611.643-5.904.643-8.033 0-13.616-5.844-5.583-5.844-5.583-16.367 0-10.362 5.623-16.829 5.623-6.466 14.7-6.466zm11.527 19.038q-.442-4.699-2.048-7.511-2.972-5.221-9.921-5.221-4.98 0-8.354 3.595-3.374 3.595-3.575 9.137zm16.507-18.074h6.868v7.43q.843-2.169 4.137-5.282 3.293-3.113 7.591-3.113.201 0 .683.04.482.04 1.647.161v7.631q-.643-.12-1.185-.161-.542-.04-1.185-.04-5.462 0-8.394 3.514-2.932 3.514-2.932 8.093v24.741h-7.23zm32.734 31.569q0 3.133 2.289 4.94 2.289 1.807 5.422 1.807 3.816 0 7.39-1.767 6.025-2.932 6.025-9.599v-5.824q-1.325.843-3.414 1.406-2.089.562-4.097.803l-4.378.562q-3.936.522-5.904 1.647-3.334 1.888-3.334 6.025zm17.512-14.62q2.49-.321 3.334-2.089.482-.964.482-2.771 0-3.695-2.631-5.362-2.631-1.667-7.531-1.667-5.663 0-8.033 3.052-1.325 1.687-1.727 5.021h-6.748q.201-7.952 5.161-11.065 4.96-3.113 11.507-3.113 7.591 0 12.33 2.892 4.699 2.892 4.699 8.997v24.781q0 1.125.462 1.807.462.683 1.948.683.482 0 1.084-.06.602-.06 1.285-.181v5.342q-1.687.482-2.57.602-.884.12-2.41.12-3.735 0-5.422-2.651-.884-1.406-1.245-3.976-2.209 2.892-6.346 5.021-4.137 2.129-9.117 2.129-5.984 0-9.78-3.635-3.796-3.635-3.796-9.097 0-5.984 3.735-9.278 3.735-3.293 9.8-4.057zm40.847 21.207q5.061 0 8.414-4.237 3.354-4.237 3.354-12.672 0-5.141-1.486-8.836-2.811-7.109-10.282-7.109-7.511 0-10.282 7.511-1.486 4.016-1.486 10.202 0 4.98 1.486 8.475 2.811 6.667 10.282 6.667zm-18.716-37.955h7.029v5.703q2.169-2.932 4.739-4.539 3.655-2.41 8.595-2.41 7.31 0 12.411 5.603 5.101 5.603 5.101 16.005 0 14.057-7.35 20.082-4.659 3.816-10.844 3.816-4.86 0-8.153-2.129-1.928-1.205-4.298-4.137v21.97h-7.23zm46.309 0h7.35v42.815h-7.35zm0-16.186h7.35v8.193h-7.35zm23.817 47.554q0 3.133 2.289 4.94 2.289 1.807 5.422 1.807 3.816 0 7.39-1.767 6.025-2.932 6.025-9.599v-5.824q-1.325.843-3.414 1.406-2.089.562-4.097.803l-4.378.562q-3.936.522-5.904 1.647-3.334 1.888-3.334 6.025zm17.512-14.62q2.49-.321 3.334-2.089.482-.964.482-2.771 0-3.695-2.631-5.362-2.631-1.667-7.531-1.667-5.663 0-8.033 3.052-1.325 1.687-1.727 5.021h-6.748q.201-7.952 5.161-11.065 4.96-3.113 11.507-3.113 7.591 0 12.33 2.892 4.699 2.892 4.699 8.997v24.781q0 1.125.462 1.807.462.683 1.948.683.482 0 1.084-.06.602-.06 1.285-.181v5.342q-1.687.482-2.571.602-.884.12-2.41.12-3.735 0-5.422-2.651-.884-1.406-1.245-3.976-2.209 2.892-6.346 5.021-4.137 2.129-9.117 2.129-5.984 0-9.78-3.635-3.796-3.635-3.796-9.097 0-5.984 3.735-9.278 3.735-3.293 9.8-4.057z"/></svg>